# xmcd
#
# Track frame offsets: 
#        150
#        14873
#        33680
#        49995
#        61100
#        75738
#        95086
#        108204
#        121572
#        137227
#        148109
#        161901
#        174211
#        181756
#        190291
#        205886
#        217190
#        236921
#        253274
#        265934
#        273869
#        285964
#        300132
#        309261
#
# Disc length: 4409 seconds
#
# Revision: 0
# Processed by: cddbd v1.5.2PL0 Copyright (c) Steve Scherf et al.
# Submitted via: ExactAudioCopy v0.99pb5
#
DISCID=5c113718
DTITLE=Tucny Michal - The best
DYEAR=1900
DGENRE=Country
TTITLE0=Posledni kovboj
TTITLE1=Bajecna zenska
TTITLE2=Koukam, jak cela zeme vstava
TTITLE3=Cesty toulavy
TTITLE4=Spim v obili
TTITLE5=Vsichni jsou uz v Mexiku
TTITLE6=Prodavac
TTITLE7=Je to zvlastni
TTITLE8=Chtel bych byt medvidkem
TTITLE9=Rovnou, tady rovnou
TTITLE10=Blizko Little Big Hornu
TTITLE11=Michaluv song
TTITLE12=Slapej dal
TTITLE13=Za chvili uz budu v dali
TTITLE14=El paso
TTITLE15=Blues Folsomske veznice
TTITLE16=Medicinman
TTITLE17=Kazdej svou karu tahne zas dal
TTITLE18=V ulickach mesta Bakersfield
TTITLE19=Lodni zvon zvoni
TTITLE20=Rad se brouzdam rosou
TTITLE21=Je mi to lito
TTITLE22=Kdyby tady byla takova panenka
TTITLE23=To je ten posledni song
EXTD=
EXTT0=
EXTT1=
EXTT2=
EXTT3=
EXTT4=
EXTT5=
EXTT6=
EXTT7=
EXTT8=
EXTT9=
EXTT10=
EXTT11=
EXTT12=
EXTT13=
EXTT14=
EXTT15=
EXTT16=
EXTT17=
EXTT18=
EXTT19=
EXTT20=
EXTT21=
EXTT22=
EXTT23=
PLAYORDER=
